<?xml version="1.0" encoding="UTF-8" standalone="no"?>
<!DOCTYPE svg PUBLIC "-//W3C//DTD SVG 1.1//EN" "http://www.w3.org/Graphics/SVG/1.1/DTD/svg11.dtd">
<svg xmlns="http://www.w3.org/2000/svg" version="1.1" viewBox="0.00 0.00 1613.00 958.00">
<g stroke-width="2.00" fill="none" stroke-linecap="butt">
<path stroke="#cfb452" vector-effect="non-scaling-stroke" d="
  M 79.80 205.96
  Q 87.14 207.14 94.25 206.58
  Q 94.42 206.63 94.47 206.44
  A 0.11 0.10 -80.5 0 0 94.38 206.31
  L 80.07 204.81"
/>
<path stroke="#585858" vector-effect="non-scaling-stroke" d="
  M 786.00 104.35
  L 782.23 104.38
  A 0.07 0.07 0.0 0 0 782.21 104.51
  Q 784.05 105.04 786.02 104.87"
/>
<path stroke="#cfb452" vector-effect="non-scaling-stroke" d="
  M 339.78 724.97
  Q 339.36 726.35 340.01 727.34
  A 1.01 1.01 0.0 0 0 341.86 726.78
  Q 341.86 725.98 341.69 725.10"
/>
<path stroke="#cfb452" vector-effect="non-scaling-stroke" d="
  M 1256.88 649.00
  Q 1255.71 645.50 1254.35 642.09
  Q 1254.19 641.68 1253.99 641.65
  A 0.70 0.70 0.0 0 0 1253.17 642.38
  Q 1253.37 645.76 1253.20 648.96"
/>
<path stroke="#585858" vector-effect="non-scaling-stroke" d="
  M 812.33 866.39
  Q 811.02 866.10 809.54 866.30"
/>
<path stroke="#585858" vector-effect="non-scaling-stroke" d="
  M 799.79 857.39
  Q 798.84 853.54 796.01 851.89"
/>
<path stroke="#585858" vector-effect="non-scaling-stroke" d="
  M 796.01 851.89
  Q 794.39 850.59 792.24 850.00
  Q 787.95 848.82 783.50 848.52
  Q 772.75 847.82 762.16 848.88"
/>
<path stroke="#585858" vector-effect="non-scaling-stroke" d="
  M 801.14 916.22
  Q 802.18 910.52 801.61 904.70
  A 0.56 0.56 0.0 0 0 801.05 904.20
  L 778.53 904.24"
/>
<path stroke="#585858" vector-effect="non-scaling-stroke" d="
  M 76.03 849.59
  L 71.84 849.37
  A 1.12 1.12 0.0 0 0 70.65 850.48
  L 70.61 859.23"
/>
<path stroke="#585858" vector-effect="non-scaling-stroke" d="
  M 66.39 951.58
  L 49.53 951.50"
/>
<path stroke="#585858" vector-effect="non-scaling-stroke" d="
  M 46.96 854.03
  L 46.61 850.08
  A 0.54 0.53 -2.3 0 0 46.07 849.59
  L 39.46 849.59"
/>
<path stroke="#585858" vector-effect="non-scaling-stroke" d="
  M 207.13 898.10
  L 199.43 900.32
  A 0.31 0.31 0.0 0 0 199.44 900.92
  L 207.29 902.66"
/>
<path stroke="#585858" vector-effect="non-scaling-stroke" d="
  M 214.29 951.77
  L 198.52 951.59"
/>
<path stroke="#585858" vector-effect="non-scaling-stroke" d="
  M 195.38 921.91
  C 194.05 913.13 185.55 910.62 177.75 910.55
  Q 161.74 910.42 145.33 910.49
  A 0.76 0.76 0.0 0 0 144.57 911.24
  L 144.49 923.06"
/>
<path stroke="#585858" vector-effect="non-scaling-stroke" d="
  M 140.33 951.55
  L 123.68 951.51"
/>
<path stroke="#585858" vector-effect="non-scaling-stroke" d="
  M 342.00 951.60
  L 326.19 951.72"
/>
<path stroke="#585858" vector-effect="non-scaling-stroke" d="
  M 320.35 939.71
  Q 320.67 938.88 320.03 938.26"
/>
<path stroke="#585858" vector-effect="non-scaling-stroke" d="
  M 319.79 938.09
  L 316.82 928.62
  A 0.75 0.74 80.8 0 0 316.11 928.10
  L 264.52 928.10
  A 1.16 1.16 0.0 0 0 263.41 928.92
  L 261.10 936.40"
/>
<path stroke="#585858" vector-effect="non-scaling-stroke" d="
  M 254.34 951.74
  L 237.03 951.62"
/>
<path stroke="#585858" vector-effect="non-scaling-stroke" d="
  M 382.31 951.48
  L 363.69 951.55"
/>
<path stroke="#585858" vector-effect="non-scaling-stroke" d="
  M 494.79 925.74
  Q 495.73 928.62 497.52 930.89
  A 0.29 0.29 0.0 0 0 498.03 930.77
  Q 498.47 928.50 497.97 925.99"
/>
<path stroke="#585858" vector-effect="non-scaling-stroke" d="
  M 516.37 951.41
  L 481.18 951.57"
/>
<path stroke="#585858" vector-effect="non-scaling-stroke" d="
  M 436.73 863.25
  L 429.69 849.29
  A 0.38 0.38 0.0 0 0 428.97 849.46
  L 429.04 862.97"
/>
<path stroke="#585858" vector-effect="non-scaling-stroke" d="
  M 426.04 951.65
  L 407.69 951.74"
/>
<path stroke="#585858" vector-effect="non-scaling-stroke" d="
  M 560.99 951.56
  L 544.20 951.56"
/>
<path stroke="#585858" vector-effect="non-scaling-stroke" d="
  M 671.69 919.33
  Q 671.60 919.07 671.54 919.50
  A 0.26 0.23 -57.7 0 0 671.57 919.68
  L 677.48 931.38
  A 0.34 0.34 0.0 0 0 678.12 931.22
  L 678.00 917.78"
/>
<path stroke="#585858" vector-effect="non-scaling-stroke" d="
  M 612.07 854.02
  Q 611.17 851.53 609.64 849.64
  A 0.33 0.32 32.9 0 0 609.07 849.76
  Q 608.59 851.64 609.10 853.96"
/>
<path stroke="#585858" vector-effect="non-scaling-stroke" d="
  M 606.24 951.64
  L 588.98 951.69"
/>
<path stroke="#585858" vector-effect="non-scaling-stroke" d="
  M 586.46 941.23
  Q 586.81 940.62 586.82 940.25
  Q 586.92 911.95 586.88 847.00
  Q 586.88 845.67 586.52 844.53"
/>
<path stroke="#585858" vector-effect="non-scaling-stroke" d="
  M 1233.92 925.80
  L 1236.78 931.39
  A 0.30 0.30 0.0 0 0 1237.35 931.25
  L 1237.32 924.03
  A 0.03 0.01 22.5 0 0 1237.30 924.01
  L 1237.29 924.01
  A 0.02 0.02 0.0 0 0 1237.27 924.03
  Q 1237.28 924.31 1237.14 924.36"
/>
<path stroke="#585858" vector-effect="non-scaling-stroke" d="
  M 1257.25 951.54
  Q 1239.85 951.73 1222.50 951.56
  Q 1221.02 951.54 1220.44 951.08"
/>
<path stroke="#585858" vector-effect="non-scaling-stroke" d="
  M 1175.95 863.23
  L 1169.07 849.66
  A 0.52 0.52 0.0 0 0 1168.09 849.83
  Q 1168.07 850.00 1168.07 850.27
  Q 1168.23 856.13 1168.34 862.07"
/>
<path stroke="#585858" vector-effect="non-scaling-stroke" d="
  M 1166.01 951.61
  L 1148.19 951.64"
/>
<path stroke="#585858" vector-effect="non-scaling-stroke" d="
  M 1337.57 849.64
  Q 1335.68 849.22 1334.25 849.59
  A 0.70 0.69 83.4 0 0 1333.73 850.25
  L 1333.54 860.25"
/>
<path stroke="#585858" vector-effect="non-scaling-stroke" d="
  M 1330.27 951.62
  L 1310.05 951.56"
/>
<path stroke="#585858" vector-effect="non-scaling-stroke" d="
  M 1309.61 852.07
  Q 1311.22 848.50 1304.53 849.69"
/>
<path stroke="#585858" vector-effect="non-scaling-stroke" d="
  M 1571.19 898.12
  L 1563.22 900.37
  A 0.30 0.30 0.0 0 0 1563.23 900.95
  L 1572.14 903.04"
/>
<path stroke="#585858" vector-effect="non-scaling-stroke" d="
  M 1580.16 951.68
  L 1562.88 951.59"
/>
<path stroke="#585858" vector-effect="non-scaling-stroke" d="
  M 1559.37 923.04
  Q 1559.70 921.67 1559.04 920.94"
/>
<path stroke="#585858" vector-effect="non-scaling-stroke" d="
  M 1558.70 919.49
  C 1555.81 911.67 1547.43 910.55 1539.76 910.49
  Q 1524.50 910.38 1509.36 910.58
  A 0.72 0.72 0.0 0 0 1508.65 911.29
  L 1508.42 923.74"
/>
<path stroke="#585858" vector-effect="non-scaling-stroke" d="
  M 1504.23 951.69
  L 1487.73 951.50"
/>
<path stroke="#585858" vector-effect="non-scaling-stroke" d="
  M 1117.55 848.88
  Q 1116.32 848.15 1113.50 848.12
  Q 1089.88 847.92 1066.34 848.13
  A 1.17 1.16 2.8 0 0 1065.19 849.17
  Q 1064.89 852.02 1065.64 854.83"
/>
<path stroke="#585858" vector-effect="non-scaling-stroke" d="
  M 1068.04 898.03
  Q 1064.88 897.68 1065.58 899.11"
/>
<path stroke="#585858" vector-effect="non-scaling-stroke" d="
  M 1456.38 848.59
  Q 1455.26 848.22 1454.49 848.21
  Q 1430.87 847.87 1407.25 848.21
  Q 1404.83 848.25 1405.17 849.03"
/>
<path stroke="#585858" vector-effect="non-scaling-stroke" d="
  M 1462.26 951.49
  L 1383.27 951.44"
/>
<path stroke="#cfb452" vector-effect="non-scaling-stroke" d="
  M 804.56 641.03
  L 803.14 637.30
  A 0.36 0.36 0.0 0 0 802.47 637.31
  L 801.18 640.97"
/>
<path stroke="#cfb452" vector-effect="non-scaling-stroke" d="
  M 1124.49 640.98
  L 1123.42 637.44
  A 0.55 0.55 0.0 0 0 1122.36 637.51
  Q 1122.02 639.49 1121.17 640.99"
/>
<path stroke="#585858" vector-effect="non-scaling-stroke" d="
  M 194.86 858.81
  Q 195.22 859.03 195.25 858.50
  Q 195.28 857.94 195.01 857.96"
/>
<path stroke="#585858" vector-effect="non-scaling-stroke" d="
  M 194.84 857.03
  Q 192.47 851.63 187.08 850.44"
/>
<path stroke="#585858" vector-effect="non-scaling-stroke" d="
  M 184.54 849.97
  Q 183.03 849.43 181.28 849.53"
/>
<path stroke="#585858" vector-effect="non-scaling-stroke" d="
  M 150.30 849.47
  Q 147.67 848.85 145.12 849.32
  A 0.82 0.81 -5.6 0 0 144.46 850.12
  L 144.68 890.83"
/>
<path stroke="#585858" vector-effect="non-scaling-stroke" d="
  M 290.89 850.27
  Q 291.02 849.13 290.57 848.46
  A 0.50 0.50 0.0 0 0 289.82 848.36
  Q 289.23 848.90 289.45 849.92"
/>
<path stroke="#585858" vector-effect="non-scaling-stroke" d="
  M 1510.09 849.39
  Q 1509.31 849.11 1508.86 849.33
  Q 1508.40 849.56 1508.48 850.33
  Q 1508.53 850.90 1508.75 851.46"
/>
</g>
<path fill="#f8c301" d="
  M 79.80 205.96
  Q 87.14 207.14 94.25 206.58
  Q 94.42 206.63 94.47 206.44
  A 0.11 0.10 -80.5 0 0 94.38 206.31
  L 80.07 204.81
  L 67.25 201.13
  A 2.39 2.20 65.8 0 1 66.90 200.98
  C 62.95 198.89 57.73 197.03 53.24 194.42
  C 33.81 183.09 17.31 165.68 8.55 144.87
  Q 5.47 137.58 3.42 129.83
  Q 3.09 128.58 2.94 126.01
  A 7.67 7.64 -53.6 0 0 2.73 124.61
  Q 1.18 118.48 1.09 115.99
  Q 0.94 112.20 1.04 94.36
  C 1.05 91.96 1.48 89.61 1.64 87.59
  A 5.09 4.88 56.8 0 1 1.85 86.46
  C 2.79 83.46 2.88 81.46 3.48 78.87
  Q 7.79 60.17 19.13 44.64
  C 34.87 23.08 56.81 7.56 83.36 2.71
  C 87.04 2.04 89.93 1.98 93.03 1.88
  Q 93.45 1.86 96.60 1.04
  Q 98.25 0.62 100.25 0.61
  Q 184.55 0.59 512.65 0.60
  A 2.28 2.28 0.0 0 1 514.93 2.74
  Q 515.38 9.90 513.56 17.34
  Q 512.94 19.90 512.96 23.10
  A 3.68 3.56 54.8 0 1 512.77 24.32
  C 511.32 28.61 510.35 33.64 508.64 38.01
  Q 499.45 61.56 479.51 79.09
  Q 458.20 97.84 431.21 102.54
  Q 422.06 104.13 404.66 104.06
  Q 374.74 103.94 105.01 104.02
  A 1.66 1.65 87.9 0 0 103.36 105.80
  C 103.53 108.10 103.93 110.30 103.94 112.73
  Q 104.22 155.01 103.95 196.28
  A 1.70 1.65 -37.0 0 1 103.87 196.79
  Q 102.73 200.68 103.53 204.94
  A 2.22 2.21 -5.3 0 0 105.71 206.74
  Q 363.68 206.72 411.50 206.76
  C 429.98 206.77 447.55 210.68 463.54 220.21
  C 489.59 235.73 508.33 261.03 513.51 290.86
  Q 515.28 301.01 515.03 317.26
  Q 514.96 321.97 515.00 415.75
  Q 515.01 432.76 508.00 450.72
  C 499.21 473.27 481.54 492.22 460.28 503.82
  Q 450.81 508.99 442.05 511.39
  C 427.26 515.45 413.02 515.65 397.00 515.65
  Q 124.34 515.62 112.25 515.59
  Q 105.68 515.57 96.27 515.09
  Q 62.78 513.39 36.64 490.60
  Q 13.66 470.57 5.27 443.26
  Q 3.52 437.55 2.73 432.72
  Q 1.21 423.38 1.11 421.96
  Q 0.88 418.84 1.16 412.56
  A 0.59 0.59 0.0 0 1 1.75 412.00
  L 411.24 412.00
  A 0.60 0.60 0.0 0 0 411.84 411.40
  L 411.84 310.43
  A 0.43 0.43 0.0 0 0 411.41 310.00
  Q 158.52 310.00 95.38 310.00
  C 93.31 310.00 91.07 309.58 88.94 309.25
  Q 88.15 309.13 88.06 308.96
  Q 87.95 308.74 87.83 308.60
  A 1.12 1.11 72.5 0 0 86.98 308.15
  L 81.14 307.92
  A 4.01 3.83 52.6 0 1 80.31 307.79
  Q 67.42 304.16 63.37 302.37
  C 43.56 293.62 26.87 278.78 15.07 260.46
  Q 8.61 250.42 3.87 234.12
  Q 3.04 231.23 2.55 227.31
  C 2.26 225.03 1.10 221.43 1.05 218.26
  Q 0.95 211.33 0.97 206.77
  A 0.61 0.61 0.0 0 1 1.58 206.16
  L 79.80 205.96
  Z"
/>
<path fill="#0a0b0d" d="
  M 786.00 104.35
  L 782.23 104.38
  A 0.07 0.07 0.0 0 0 782.21 104.51
  Q 784.05 105.04 786.02 104.87
  Q 789.48 105.49 792.97 106.13
  Q 818.20 110.76 837.36 127.14
  C 855.51 142.67 868.55 162.19 872.97 185.76
  C 874.28 192.76 875.00 200.07 875.00 207.79
  Q 875.02 504.86 874.98 514.19
  A 0.87 0.87 0.0 0 1 874.11 515.06
  Q 834.45 514.98 805.69 488.29
  C 785.58 469.63 773.37 445.40 772.92 418.85
  C 772.86 414.78 772.37 411.53 772.40 407.05
  C 772.48 396.04 772.23 382.62 772.24 374.65
  Q 772.26 349.54 772.33 152.00
  C 772.34 136.23 772.08 120.47 772.13 104.72
  A 0.73 0.73 0.0 0 0 771.40 103.99
  L 567.73 103.99
  A 0.63 0.63 0.0 0 1 567.10 103.39
  Q 566.73 95.98 567.29 92.70
  Q 567.94 88.92 567.97 88.23
  Q 568.05 86.69 568.20 85.80
  Q 572.42 60.14 588.85 40.09
  Q 595.82 31.59 605.21 23.73
  Q 622.82 9.00 645.81 3.90
  Q 649.36 3.11 650.91 2.97
  Q 654.20 2.68 655.34 2.24
  A 3.79 3.73 -54.9 0 1 656.66 2.00
  C 662.46 1.97 668.06 1.17 673.46 1.17
  Q 898.61 1.03 1079.45 1.24
  A 1.14 1.13 1.4 0 1 1080.59 2.43
  L 1079.95 15.38
  A 0.56 0.55 -33.2 0 1 1079.90 15.61
  C 1078.93 17.96 1079.14 20.11 1078.65 22.67
  C 1073.46 49.55 1056.67 72.51 1034.04 87.52
  Q 1015.63 99.73 993.69 102.67
  Q 991.84 102.92 983.40 103.60
  Q 978.43 104.00 973.09 104.00
  Q 933.53 104.01 787.25 103.94
  Q 786.40 103.94 786.00 104.35
  Z"
/>
<path fill="#0a0b0d" d="
  M 1200.78 426.42
  L 1200.78 514.45
  A 0.59 0.58 -0.0 0 1 1200.19 515.03
  L 1191.05 514.94
  A 1.42 1.34 -35.5 0 1 1190.68 514.89
  C 1187.60 514.07 1185.17 514.15 1182.37 513.67
  C 1157.28 509.44 1136.69 496.24 1120.51 476.74
  Q 1105.93 459.16 1100.83 436.86
  Q 1100.05 433.47 1099.98 432.47
  C 1099.80 429.96 1099.12 428.69 1099.03 426.57
  C 1098.79 420.64 1097.99 415.68 1097.99 409.14
  Q 1098.01 247.80 1097.99 105.69
  C 1097.99 99.63 1098.98 93.76 1099.12 88.72
  A 2.91 2.66 -35.3 0 1 1099.32 87.80
  C 1100.03 86.05 1099.85 84.25 1100.20 82.51
  Q 1103.72 65.44 1111.96 51.95
  Q 1125.98 29.02 1148.99 15.02
  Q 1161.94 7.13 1179.22 3.45
  C 1182.12 2.83 1184.00 3.15 1186.27 2.27
  A 3.48 3.40 -55.1 0 1 1187.53 2.03
  C 1194.26 1.97 1200.23 1.13 1206.86 1.13
  Q 1459.39 1.11 1611.30 1.15
  A 0.78 0.78 0.0 0 1 1612.08 1.94
  L 1611.95 11.75
  A 7.04 6.77 53.4 0 1 1611.75 13.32
  C 1611.06 16.23 1611.08 19.22 1610.47 22.08
  Q 1607.50 35.97 1602.97 45.23
  Q 1592.50 66.62 1573.47 81.98
  Q 1552.83 98.62 1526.62 102.63
  Q 1524.20 103.00 1517.54 103.61
  Q 1513.25 104.00 1508.43 104.00
  Q 1354.86 103.99 1201.30 104.00
  A 0.32 0.32 0.0 0 0 1200.98 104.32
  L 1200.98 411.69
  A 0.81 0.81 0.0 0 0 1201.81 412.50
  C 1210.63 412.35 1221.09 412.72 1226.77 412.72
  Q 1476.58 412.73 1492.24 412.73
  Q 1519.67 412.75 1527.18 413.93
  Q 1548.16 417.25 1566.29 429.22
  C 1581.16 439.04 1595.15 454.80 1602.94 471.26
  Q 1612.28 491.00 1612.10 514.06
  A 1.20 1.20 0.0 0 1 1610.90 515.25
  L 1294.10 514.97
  A 5.19 5.13 53.1 0 1 1292.61 514.75
  C 1290.07 514.01 1287.99 514.13 1285.58 513.74
  Q 1262.82 510.08 1244.26 496.50
  Q 1240.58 493.80 1230.85 484.79
  Q 1222.48 477.02 1214.84 464.57
  Q 1204.32 447.42 1202.00 426.49
  A 0.54 0.53 87.0 0 0 1201.47 426.01
  L 1201.19 426.01
  A 0.41 0.41 0.0 0 0 1200.78 426.42
  Z"
/>
<path fill="#a5a4a3" d="
  M 786.00 104.35
  Q 786.07 104.53 786.02 104.87
  Q 784.05 105.04 782.21 104.51
  A 0.07 0.07 0.0 0 1 782.23 104.38
  L 786.00 104.35
  Z"
/>
<path fill="#a5a4a3" d="
  M 79.80 205.96
  L 80.07 204.81
  L 94.38 206.31
  A 0.11 0.10 -80.5 0 1 94.47 206.44
  Q 94.42 206.63 94.25 206.58
  Q 87.14 207.14 79.80 205.96
  Z"
/>
<path fill="#f8c301" d="
  M 65.02 713.10
  Q 66.12 719.88 66.33 720.96
  C 66.94 724.13 68.59 726.75 71.43 728.23
  Q 72.94 729.02 73.31 729.57
  A 0.79 0.77 65.5 0 0 74.14 729.89
  Q 74.85 729.71 81.99 730.60
  Q 86.15 731.11 100.08 730.90
  C 103.54 730.85 107.29 729.88 110.73 729.95
  A 1.69 1.63 29.0 0 0 111.63 729.71
  C 113.96 728.33 116.71 727.71 117.85 724.79
  C 119.60 720.31 119.30 715.77 119.06 710.30
  Q 118.94 707.56 116.58 704.50
  A 2.11 2.10 76.6 0 0 115.30 703.71
  Q 107.76 702.29 103.27 701.95
  Q 75.94 699.92 75.09 699.84
  Q 59.60 698.32 53.17 696.77
  C 44.11 694.58 33.94 688.63 29.70 679.60
  Q 27.97 675.90 26.09 668.66
  Q 24.92 664.18 24.92 657.23
  Q 24.92 644.16 25.02 642.75
  Q 25.86 631.35 31.18 622.40
  C 37.90 611.11 49.17 606.67 61.78 604.57
  Q 68.41 603.47 74.29 603.15
  Q 97.82 601.88 116.99 603.81
  C 123.34 604.45 132.22 606.14 138.41 609.29
  Q 154.55 617.51 156.78 636.49
  Q 157.90 645.98 157.96 652.27
  Q 157.98 654.72 155.24 654.81
  Q 137.57 655.36 118.94 654.90
  A 2.18 2.17 87.6 0 1 116.84 652.96
  Q 116.49 649.64 115.62 646.11
  Q 114.92 643.25 111.87 640.38
  A 2.50 2.48 -13.3 0 0 111.05 639.88
  Q 105.32 637.86 95.25 637.97
  Q 84.22 638.09 76.24 639.50
  Q 74.32 639.84 70.07 642.14
  A 1.64 1.62 88.5 0 0 69.35 642.91
  Q 66.95 648.28 67.06 653.51
  C 67.11 656.14 68.79 658.70 69.13 661.00
  A 1.23 1.21 -78.1 0 0 69.68 661.86
  Q 72.86 663.92 73.32 664.01
  Q 80.29 665.30 80.99 665.36
  Q 105.87 667.16 113.68 667.90
  Q 123.38 668.83 131.83 670.65
  C 147.14 673.93 159.09 681.35 161.14 698.08
  Q 163.35 716.10 161.09 734.07
  C 159.85 743.97 155.62 754.04 146.71 758.93
  C 139.25 763.02 130.94 764.24 121.57 765.36
  Q 116.05 766.03 108.42 766.01
  Q 89.19 765.98 76.45 766.01
  Q 72.42 766.02 67.59 765.44
  C 58.76 764.37 48.91 762.24 42.90 758.53
  Q 31.70 751.60 27.70 738.30
  Q 25.09 729.65 24.39 719.76
  A 2.70 2.69 -38.9 0 1 24.50 718.76
  Q 25.23 716.45 24.27 714.85
  A 0.93 0.90 -47.8 0 1 24.24 713.98
  Q 24.92 712.63 27.01 712.61
  Q 47.01 712.41 64.51 712.66
  A 0.53 0.52 -3.9 0 1 65.02 713.10
  Z"
/>
<path fill="#f8c301" d="
  M 962.96 703.42
  L 962.96 674.35
  A 0.35 0.35 0.0 0 1 963.31 674.00
  L 1034.38 674.00
  A 1.62 1.61 89.6 0 1 1035.99 675.60
  C 1036.13 691.47 1036.10 704.78 1035.18 718.98
  C 1033.95 737.73 1028.53 755.16 1008.90 761.64
  Q 997.29 765.47 983.74 765.90
  Q 978.24 766.07 950.28 766.00
  C 942.18 765.97 933.42 764.75 927.32 763.65
  Q 917.54 761.90 908.75 756.25
  Q 895.79 747.93 891.63 732.60
  Q 890.50 728.44 889.98 726.38
  C 888.86 721.90 888.95 717.70 888.33 713.35
  Q 888.02 711.15 888.01 706.65
  Q 887.89 668.21 888.12 661.02
  Q 888.36 653.47 889.64 645.59
  Q 891.08 636.72 893.93 630.75
  Q 901.34 615.25 917.61 608.64
  Q 921.54 607.04 930.13 605.36
  Q 937.00 604.01 942.92 603.52
  Q 962.53 601.91 983.25 603.37
  C 990.44 603.88 999.72 605.40 1006.00 607.51
  C 1014.66 610.43 1022.66 615.67 1028.26 623.78
  C 1033.84 631.88 1035.43 642.20 1035.96 652.41
  A 1.50 1.50 0.0 0 1 1034.46 654.00
  L 993.50 654.00
  A 1.33 1.33 0.0 0 1 992.19 652.91
  L 991.02 646.66
  A 1.14 1.10 -81.4 0 0 990.48 645.90
  Q 989.46 645.29 988.13 643.01
  A 1.93 1.92 84.1 0 0 987.05 642.13
  Q 985.81 641.72 984.81 640.76
  A 2.73 2.73 0.0 0 0 983.56 640.06
  Q 972.27 637.13 960.40 638.08
  C 951.69 638.79 940.04 639.45 935.21 647.94
  Q 934.70 648.83 933.65 653.13
  Q 932.93 656.05 932.86 658.45
  Q 932.04 687.85 932.32 697.76
  Q 932.47 702.86 933.16 712.39
  Q 933.27 714.04 934.78 718.24
  C 936.43 722.84 939.83 726.95 944.42 728.63
  Q 945.99 729.21 946.76 729.69
  A 1.71 1.66 -30.3 0 0 947.82 729.95
  Q 948.94 729.84 955.73 730.62
  Q 964.76 731.66 979.68 729.89
  A 2.58 2.52 -65.8 0 0 980.85 729.43
  Q 982.37 728.33 984.05 727.91
  A 0.71 0.70 -72.0 0 0 984.32 727.77
  L 987.13 725.58
  A 1.77 1.68 88.6 0 0 987.52 725.15
  Q 990.35 720.67 990.59 719.75
  Q 992.19 713.70 992.02 704.63
  A 0.64 0.64 0.0 0 0 991.38 704.00
  L 963.53 704.00
  A 0.58 0.57 90.0 0 1 962.96 703.42
  Z"
/>
<path fill="#f8c301" d="
  M 339.78 724.97
  Q 339.36 726.35 340.01 727.34
  A 1.01 1.01 0.0 0 0 341.86 726.78
  Q 341.86 725.98 341.69 725.10
  C 342.44 724.95 342.77 724.54 342.84 723.75
  Q 343.07 721.31 344.26 715.24
  Q 347.12 700.58 354.85 660.98
  Q 355.19 659.25 355.33 658.76
  Q 356.15 655.84 356.60 652.78
  Q 357.09 649.46 357.62 646.75
  Q 360.31 632.96 365.65 605.70
  A 2.11 2.10 5.5 0 1 367.72 604.00
  L 408.31 604.00
  A 0.75 0.75 0.0 0 1 409.02 604.99
  Q 407.68 608.95 407.23 611.77
  Q 406.65 615.36 405.90 618.62
  Q 401.58 637.27 396.17 661.83
  Q 392.66 677.79 388.98 694.74
  C 388.42 697.32 387.62 699.83 387.09 702.38
  Q 383.02 722.08 377.06 748.51
  Q 377.04 748.59 376.76 750.69
  A 3.47 3.34 62.4 0 1 376.47 751.68
  C 374.51 755.94 375.32 760.70 372.91 764.64
  A 1.04 1.03 15.3 0 1 372.02 765.14
  L 312.90 765.14
  A 1.82 1.82 0.0 0 1 311.08 763.38
  C 310.97 760.58 310.08 758.62 309.46 755.81
  Q 305.22 736.74 304.83 734.87
  Q 295.54 691.34 295.16 689.22
  Q 294.94 688.05 294.83 687.59
  Q 291.32 673.68 291.15 671.33
  Q 290.92 668.20 289.73 665.66
  A 1.37 1.37 0.0 0 0 287.13 666.02
  Q 286.89 667.54 286.68 668.49
  Q 283.09 684.26 268.74 745.66
  C 268.04 748.67 266.96 751.50 266.76 754.50
  Q 266.65 756.06 265.22 759.01
  A 1.02 0.93 60.8 0 0 265.14 759.35
  L 264.85 763.25
  A 2.03 2.02 -88.0 0 1 262.83 765.14
  L 204.39 765.14
  A 0.88 0.87 78.1 0 1 203.59 764.61
  Q 201.53 759.84 200.95 754.71
  A 10.02 9.97 33.6 0 0 200.60 753.00
  C 199.44 749.05 198.98 745.91 198.05 741.69
  Q 194.78 726.85 190.00 704.73
  Q 174.23 631.77 171.06 617.45
  Q 171.01 617.26 170.96 616.02
  A 6.35 6.17 35.1 0 0 170.63 614.28
  Q 169.04 609.65 168.82 604.59
  A 0.57 0.56 89.0 0 1 169.38 604.00
  L 210.60 604.00
  A 1.30 1.29 84.6 0 1 211.87 605.06
  L 234.73 727.24
  A 1.05 1.05 0.0 0 0 236.78 727.30
  L 266.42 605.35
  A 1.78 1.77 6.8 0 1 268.15 604.00
  L 310.51 604.00
  A 0.94 0.94 0.0 0 1 311.43 604.73
  Q 327.24 672.55 339.05 723.74
  Q 339.24 724.59 339.78 724.97
  Z"
/>
<path fill="#f8c301" d="
  M 566.34 764.61
  A 0.66 0.65 3.5 0 1 565.69 765.18
  L 524.99 765.18
  A 2.07 2.06 -8.3 0 1 523.01 763.70
  L 515.29 738.25
  A 0.87 0.86 81.2 0 0 514.47 737.64
  L 457.99 737.63
  A 1.18 1.17 -81.6 0 0 456.87 738.47
  L 449.26 763.84
  A 1.83 1.82 8.3 0 1 447.51 765.14
  L 406.30 765.13
  A 1.24 1.24 0.0 0 1 405.11 763.54
  L 452.76 604.57
  A 0.81 0.80 8.2 0 1 453.54 604.00
  L 517.72 604.01
  A 0.50 0.50 0.0 0 1 518.20 604.36
  Q 536.49 664.21 566.01 761.56
  Q 566.52 763.24 566.34 764.61
  Z
  M 486.36 706.13
  Q 505.19 706.08 505.33 706.12
  A 0.43 0.42 -84.0 0 0 505.88 705.67
  Q 505.61 702.53 505.58 702.47
  C 504.19 699.31 503.58 695.93 502.64 692.63
  Q 495.07 666.11 487.45 639.82
  Q 487.32 639.37 486.96 639.21
  Q 486.60 639.04 486.15 639.04
  Q 485.71 639.04 485.35 639.21
  Q 484.99 639.38 484.86 639.83
  Q 477.40 666.16 469.99 692.73
  C 469.07 696.03 468.48 699.42 467.11 702.59
  Q 467.08 702.65 466.83 705.79
  A 0.43 0.42 83.6 0 0 467.38 706.23
  Q 467.52 706.19 486.36 706.13
  Z"
/>
<path fill="#f8c301" d="
  M 618.31 765.13
  L 578.51 765.13
  A 1.53 1.53 0.0 0 1 576.98 763.60
  L 576.98 604.32
  A 0.33 0.33 0.0 0 1 577.31 603.99
  Q 633.19 604.04 660.50 603.94
  Q 678.03 603.88 693.07 608.98
  C 704.08 612.71 711.36 623.53 713.36 634.91
  Q 716.22 651.18 714.40 671.44
  Q 713.53 681.03 710.28 686.58
  Q 705.12 695.40 694.82 699.06
  Q 688.74 701.22 687.76 701.68
  C 686.79 702.13 685.31 701.77 684.56 702.42
  A 0.87 0.87 0.0 0 0 685.00 703.94
  C 689.49 704.56 693.42 704.86 697.49 706.56
  Q 708.21 711.04 711.79 721.31
  Q 713.34 725.73 713.16 738.31
  Q 713.03 748.28 713.27 764.01
  A 1.12 1.11 -0.5 0 1 712.15 765.14
  L 671.62 765.14
  A 0.60 0.60 0.0 0 1 671.02 764.56
  Q 670.89 759.21 670.98 745.91
  C 671.01 741.48 670.28 738.42 669.61 734.39
  Q 669.23 732.13 665.88 726.74
  A 0.94 0.94 0.0 0 0 665.60 726.46
  L 662.03 724.22
  A 1.41 1.34 -19.9 0 0 661.71 724.08
  Q 654.91 722.03 647.51 722.04
  Q 638.08 722.06 623.18 722.05
  A 1.74 1.74 0.0 0 0 622.00 722.51
  Q 621.35 723.10 620.60 723.04
  A 0.54 0.53 -2.1 0 0 620.03 723.65
  Q 620.10 724.16 619.63 725.09
  A 3.22 3.16 -32.4 0 0 619.30 726.50
  L 619.30 764.14
  A 0.99 0.99 0.0 0 1 618.31 765.13
  Z
  M 662.80 642.83
  Q 662.80 642.62 662.62 642.38
  Q 662.56 642.31 661.84 642.12
  Q 660.76 641.83 655.00 641.78
  Q 629.67 641.56 620.66 641.72
  A 0.53 0.53 0.0 0 0 620.14 642.29
  Q 620.27 644.21 619.64 645.66
  A 0.68 0.62 -34.1 0 0 619.57 645.95
  L 619.57 682.81
  A 1.83 1.82 0.0 0 0 621.40 684.63
  Q 653.31 684.61 653.63 684.64
  C 656.57 684.86 660.09 683.70 662.99 684.00
  A 0.84 0.84 0.0 0 0 663.80 683.58
  Q 664.48 682.38 666.24 681.99
  A 0.96 0.95 -88.9 0 0 666.94 681.31
  Q 667.17 680.41 667.70 680.24
  Q 668.70 679.92 669.04 678.39
  Q 671.92 665.55 670.51 653.48
  A 4.41 4.33 33.2 0 0 670.31 652.56
  L 668.25 646.29
  A 0.90 0.90 0.0 0 0 667.59 645.69
  Q 666.37 645.43 665.96 644.55
  A 1.05 1.03 85.0 0 0 665.33 644.01
  L 663.18 643.36
  A 0.54 0.54 0.0 0 1 662.80 642.83
  Z"
/>
<path fill="#f8c301" d="
  M 883.09 764.53
  A 0.66 0.65 3.4 0 1 882.44 765.10
  L 841.74 765.12
  A 2.07 2.06 -8.3 0 1 839.76 763.65
  L 832.03 738.20
  A 0.87 0.86 81.2 0 0 831.20 737.59
  L 774.73 737.62
  A 1.18 1.17 -81.7 0 0 773.61 738.46
  L 766.02 763.84
  A 1.83 1.82 8.3 0 1 764.27 765.14
  L 723.06 765.16
  A 1.24 1.24 0.0 0 1 721.87 763.57
  L 769.41 604.57
  A 0.81 0.80 8.2 0 1 770.18 604.00
  L 834.36 603.97
  A 0.50 0.50 0.0 0 1 834.84 604.32
  Q 853.18 664.15 882.76 761.48
  Q 883.27 763.16 883.09 764.53
  Z
  M 801.18 640.97
  L 788.94 684.24
  A 2.45 2.02 -39.5 0 0 788.87 684.60
  Q 788.49 687.97 787.33 690.05
  A 2.74 2.69 65.1 0 0 787.01 690.95
  L 785.97 696.83
  A 0.87 0.85 -9.6 0 1 785.53 697.44
  Q 785.50 697.45 785.43 697.48
  A 1.08 1.07 78.2 0 0 784.84 698.39
  Q 784.72 701.50 783.10 704.77
  A 0.96 0.96 0.0 0 0 783.96 706.15
  L 822.02 706.15
  A 1.06 1.05 76.6 0 0 822.96 704.62
  Q 821.20 701.15 821.20 698.23
  A 0.91 0.91 0.0 0 0 820.69 697.41
  Q 820.43 697.29 820.27 697.18
  Q 819.99 696.98 819.92 696.26
  Q 819.64 693.30 818.93 691.14
  Q 817.56 686.98 817.50 686.59
  Q 817.16 684.55 814.56 676.08
  C 813.43 672.38 812.46 668.15 811.09 663.84
  Q 809.81 659.79 808.41 654.66
  Q 806.54 647.83 804.56 641.03
  L 803.14 637.30
  A 0.36 0.36 0.0 0 0 802.47 637.31
  L 801.18 640.97
  Z"
/>
<path fill="#f8c301" d="
  M 1042.99 765.12
  A 1.09 1.09 0.0 0 1 1041.95 763.72
  L 1089.62 604.56
  A 0.79 0.78 -81.5 0 1 1090.37 604.00
  L 1153.72 604.00
  A 1.67 1.66 -8.5 0 1 1155.31 605.17
  Q 1189.34 716.82 1202.91 761.78
  Q 1203.28 763.00 1202.94 764.63
  A 0.65 0.64 6.1 0 1 1202.31 765.13
  L 1160.77 765.13
  A 0.76 0.76 0.0 0 1 1160.04 764.58
  L 1156.67 752.33
  A 3.52 3.33 23.5 0 0 1156.32 751.51
  Q 1155.00 749.27 1155.01 746.99
  A 0.87 0.85 -55.5 0 0 1154.96 746.70
  L 1151.96 738.13
  A 0.76 0.76 0.0 0 0 1151.24 737.62
  L 1095.49 737.62
  A 2.34 2.33 3.2 0 0 1093.17 739.69
  Q 1092.80 743.06 1091.31 746.02
  A 1.98 1.88 61.0 0 0 1091.11 746.79
  C 1090.97 749.43 1089.47 751.37 1089.01 754.04
  Q 1088.41 757.51 1087.46 759.36
  C 1086.45 761.34 1087.82 763.13 1085.87 764.87
  A 1.03 1.02 -65.1 0 1 1085.20 765.12
  L 1042.99 765.12
  Z
  M 1121.17 640.99
  Q 1120.55 644.34 1119.59 647.70
  Q 1117.38 655.47 1113.55 668.49
  C 1112.83 670.92 1112.57 673.98 1111.51 675.70
  A 2.45 2.26 69.3 0 0 1111.19 676.49
  C 1110.85 678.00 1110.62 681.81 1109.41 683.58
  C 1108.34 685.16 1108.61 687.57 1107.75 689.39
  Q 1106.88 691.23 1106.36 695.18
  A 5.12 4.99 -29.6 0 1 1105.93 696.66
  Q 1104.11 700.48 1104.06 705.68
  A 0.47 0.47 0.0 0 0 1104.53 706.16
  L 1142.42 706.16
  A 0.64 0.64 0.0 0 0 1143.05 705.40
  L 1142.44 702.16
  A 1.00 0.94 -69.7 0 0 1142.28 701.78
  C 1141.19 700.26 1141.45 698.39 1140.69 696.90
  Q 1139.80 695.17 1139.46 692.97
  C 1139.01 689.99 1137.64 688.35 1137.44 685.48
  Q 1137.33 683.94 1136.50 681.93
  C 1135.36 679.17 1135.19 676.52 1134.06 673.35
  Q 1133.75 672.50 1131.77 665.77
  C 1131.32 664.25 1131.28 662.61 1130.65 661.70
  Q 1129.87 660.60 1129.63 658.77
  Q 1129.12 654.69 1127.85 652.17
  A 4.50 4.47 28.1 0 1 1127.45 650.87
  Q 1127.02 647.91 1125.80 645.36
  A 2.57 2.54 -58.8 0 1 1125.54 644.28
  Q 1125.50 641.99 1124.49 640.98
  L 1123.42 637.44
  A 0.55 0.55 0.0 0 0 1122.36 637.51
  Q 1122.02 639.49 1121.17 640.99
  Z"
/>
<path fill="#f8c301" d="
  M 1256.88 649.00
  Q 1255.71 645.50 1254.35 642.09
  Q 1254.19 641.68 1253.99 641.65
  A 0.70 0.70 0.0 0 0 1253.17 642.38
  Q 1253.37 645.76 1253.20 648.96
  Q 1253.89 667.00 1254.70 685.02
  C 1255.12 694.55 1254.64 704.57 1255.44 712.96
  C 1256.25 721.49 1255.77 729.78 1256.46 737.90
  C 1257.24 747.09 1257.01 752.10 1257.03 763.35
  A 1.79 1.79 0.0 0 1 1255.24 765.14
  L 1215.68 765.14
  A 0.84 0.83 -0.0 0 1 1214.84 764.31
  L 1214.84 604.75
  A 0.75 0.75 0.0 0 1 1215.59 604.00
  L 1281.91 604.00
  A 0.74 0.72 81.2 0 1 1282.60 604.52
  Q 1295.03 645.17 1309.45 692.88
  C 1310.63 696.76 1311.72 701.80 1313.28 704.49
  Q 1313.52 704.89 1313.63 704.97
  A 0.65 0.65 0.0 0 0 1314.61 704.66
  Q 1317.40 697.20 1320.25 686.74
  Q 1323.48 674.92 1323.64 674.59
  Q 1323.74 674.41 1342.45 609.79
  C 1343.06 607.69 1343.01 606.38 1343.23 604.56
  A 0.64 0.63 -86.4 0 1 1343.86 604.00
  L 1412.19 604.00
  A 1.81 1.80 -90.0 0 1 1413.99 605.81
  L 1413.99 762.97
  A 2.17 2.16 90.0 0 1 1411.83 765.14
  L 1372.77 765.14
  A 1.73 1.72 88.8 0 1 1371.05 763.48
  C 1370.91 760.01 1370.90 753.82 1371.25 748.83
  Q 1372.09 737.12 1372.05 723.13
  Q 1372.04 722.29 1372.51 720.23
  A 6.88 5.99 -41.1 0 0 1372.64 719.29
  C 1373.20 709.05 1372.63 697.92 1373.54 687.05
  Q 1374.01 681.35 1373.94 673.59
  Q 1373.90 668.88 1374.70 659.97
  Q 1375.29 653.43 1374.86 643.65
  A 0.95 0.95 0.0 0 0 1373.02 643.37
  Q 1369.46 653.57 1359.83 682.86
  Q 1357.62 689.59 1357.33 690.07
  A 1.48 1.48 0.0 0 0 1357.11 690.81
  C 1357.01 692.97 1355.80 694.90 1355.08 697.10
  Q 1345.18 727.33 1335.94 755.19
  Q 1334.92 758.28 1333.86 762.41
  A 3.62 3.62 0.0 0 1 1330.35 765.13
  L 1296.87 765.13
  A 1.68 1.68 0.0 0 1 1295.26 763.93
  Q 1294.11 760.03 1292.78 756.45
  Q 1291.27 752.33 1290.34 749.07
  Q 1288.94 744.11 1287.16 739.39
  Q 1285.79 735.75 1283.86 729.76
  Q 1280.41 718.99 1277.21 709.60
  Q 1276.29 706.88 1275.68 705.81
  Q 1275.37 705.27 1274.99 702.80
  A 3.20 3.02 29.3 0 0 1274.69 701.84
  Q 1273.80 700.08 1273.20 697.43
  Q 1272.67 695.07 1271.76 692.98
  Q 1269.52 687.78 1268.80 684.14
  A 2.70 2.61 23.7 0 0 1268.41 683.19
  Q 1267.31 681.54 1267.01 679.04
  A 3.06 2.91 -59.6 0 0 1266.86 678.40
  Q 1262.88 667.23 1261.03 660.98
  C 1260.40 658.88 1259.19 657.42 1259.05 655.18
  A 2.08 2.08 0.0 0 0 1258.96 654.73
  L 1256.88 649.00
  Z"
/>
<path fill="#f8c301" d="
  M 1585.17 765.12
  L 1544.49 765.12
  A 2.07 2.06 -8.3 0 1 1542.51 763.65
  L 1534.79 738.21
  A 0.87 0.86 81.2 0 0 1533.97 737.60
  L 1477.52 737.60
  A 1.18 1.17 -81.7 0 0 1476.40 738.44
  L 1468.80 763.80
  A 1.83 1.82 8.3 0 1 1467.05 765.10
  L 1425.86 765.10
  A 1.24 1.24 0.0 0 1 1424.67 763.51
  L 1472.27 604.60
  A 0.81 0.80 8.2 0 1 1473.04 604.03
  L 1537.19 604.03
  A 0.50 0.50 0.0 0 1 1537.67 604.38
  Q 1555.97 664.20 1585.49 761.50
  Q 1586.00 763.18 1585.82 764.55
  A 0.66 0.65 3.5 0 1 1585.17 765.12
  Z
  M 1505.89 706.11
  Q 1524.38 706.05 1524.86 706.10
  A 0.54 0.53 -87.8 0 0 1525.45 705.55
  Q 1525.30 701.47 1523.55 697.99
  Q 1522.99 696.86 1522.78 694.05
  A 1.04 1.04 0.0 0 0 1522.35 693.29
  Q 1522.30 693.26 1522.29 693.25
  A 1.68 1.67 -73.3 0 1 1521.76 692.26
  Q 1521.22 688.77 1520.13 685.54
  Q 1518.72 681.33 1518.61 680.43
  Q 1518.60 680.42 1507.01 640.01
  Q 1506.85 639.47 1506.51 639.27
  Q 1506.14 639.05 1505.65 639.06
  Q 1505.15 639.06 1504.78 639.28
  Q 1504.45 639.48 1504.29 640.02
  Q 1493.00 680.51 1492.99 680.52
  Q 1492.88 681.42 1491.50 685.64
  Q 1490.44 688.88 1489.92 692.38
  A 1.68 1.67 72.9 0 1 1489.40 693.37
  Q 1489.39 693.38 1489.34 693.41
  A 1.04 1.04 0.0 0 0 1488.92 694.17
  Q 1488.73 696.99 1488.18 698.12
  Q 1486.45 701.61 1486.33 705.69
  A 0.54 0.53 87.4 0 0 1486.93 706.24
  Q 1487.41 706.18 1505.89 706.11
  Z"
/>
<path fill="#a5a4a3" d="
  M 804.56 641.03
  L 801.18 640.97
  L 802.47 637.31
  A 0.36 0.36 0.0 0 1 803.14 637.30
  L 804.56 641.03
  Z"
/>
<path fill="#a5a4a3" d="
  M 1124.49 640.98
  L 1121.17 640.99
  Q 1122.02 639.49 1122.36 637.51
  A 0.55 0.55 0.0 0 1 1123.42 637.44
  L 1124.49 640.98
  Z"
/>
<path fill="#a5a4a3" d="
  M 1256.88 649.00
  L 1253.20 648.96
  Q 1253.37 645.76 1253.17 642.38
  A 0.70 0.70 0.0 0 1 1253.99 641.65
  Q 1254.19 641.68 1254.35 642.09
  Q 1255.71 645.50 1256.88 649.00
  Z"
/>
<path fill="#a5a4a3" d="
  M 341.69 725.10
  Q 341.86 725.98 341.86 726.78
  A 1.01 1.01 0.0 0 1 340.01 727.34
  Q 339.36 726.35 339.78 724.97
  L 341.69 725.10
  Z"
/>
<path fill="#0a0b0d" d="
  M 812.33 866.39
  Q 811.02 866.10 809.54 866.30
  L 802.59 865.94
  A 0.67 0.66 83.6 0 1 802.00 865.46
  L 799.79 857.39
  Q 798.84 853.54 796.01 851.89
  Q 794.39 850.59 792.24 850.00
  Q 787.95 848.82 783.50 848.52
  Q 772.75 847.82 762.16 848.88
  Q 757.72 849.71 753.25 851.25
  Q 753.11 851.30 751.59 852.41
  Q 746.03 856.50 744.40 862.68
  Q 743.38 866.57 742.90 871.09
  Q 741.67 882.60 742.10 899.42
  C 742.22 904.43 742.92 908.24 743.11 912.70
  Q 743.27 916.37 745.38 921.87
  Q 747.96 928.61 754.30 930.78
  Q 757.93 932.01 765.05 932.66
  Q 774.33 933.50 783.31 932.31
  Q 784.36 932.17 786.20 932.02
  Q 787.53 931.91 789.22 931.47
  Q 800.76 928.45 801.14 916.22
  Q 802.18 910.52 801.61 904.70
  A 0.56 0.56 0.0 0 0 801.05 904.20
  L 778.53 904.24
  L 771.49 903.93
  A 0.51 0.51 0.0 0 1 771.00 903.42
  L 771.00 887.28
  A 0.63 0.63 0.0 0 1 771.63 886.65
  L 823.89 886.65
  A 0.77 0.76 88.8 0 1 824.65 887.39
  Q 825.26 903.21 823.57 919.07
  C 822.79 926.32 820.50 934.47 815.94 939.99
  C 809.95 947.22 800.86 950.31 791.62 951.62
  Q 772.58 954.32 752.90 951.59
  C 739.93 949.78 728.92 944.95 723.51 932.35
  Q 722.24 929.41 721.75 926.46
  Q 721.50 924.98 720.33 920.74
  A 4.26 4.24 36.7 0 1 720.17 919.66
  C 720.12 915.76 718.90 912.85 718.97 909.08
  Q 719.09 902.99 718.33 898.60
  C 717.87 895.92 718.52 893.56 718.14 890.70
  A 1.16 1.11 43.9 0 1 718.13 890.44
  L 719.08 871.07
  A 3.13 2.92 54.3 0 1 719.15 870.52
  Q 720.11 866.07 720.05 863.55
  A 2.58 2.40 -37.5 0 1 720.22 862.55
  Q 720.42 862.04 721.36 857.79
  Q 722.54 852.52 725.45 846.95
  C 730.36 837.58 739.80 832.09 749.77 830.32
  Q 753.30 829.69 753.82 829.57
  Q 756.64 828.91 757.88 829.00
  Q 759.00 829.08 766.79 828.28
  Q 770.91 827.86 775.72 828.22
  Q 786.08 829.00 791.38 829.10
  A 1.96 1.92 56.2 0 1 792.15 829.26
  Q 792.99 829.61 796.71 830.14
  Q 800.15 830.64 803.96 832.04
  Q 808.04 833.53 810.74 835.23
  Q 819.49 840.73 822.43 852.63
  Q 824.25 859.96 824.10 865.36
  A 0.60 0.60 0.0 0 1 823.52 865.94
  L 812.33 866.39
  Z"
/>
<path fill="#0a0b0d" d="
  M 1006.99 869.34
  Q 1007.28 866.68 1006.14 862.41
  C 1004.64 856.76 1002.83 852.19 996.86 850.44
  Q 996.53 850.35 993.39 849.50
  Q 992.00 849.13 989.84 849.04
  Q 978.98 848.59 971.18 848.98
  A 8.61 8.49 -53.9 0 0 969.35 849.28
  Q 967.03 849.91 966.73 849.93
  Q 965.37 850.00 962.91 851.16
  C 956.60 854.15 954.92 860.34 953.36 867.60
  C 952.75 870.40 953.01 872.77 952.53 876.36
  Q 952.45 876.91 952.31 878.85
  Q 951.75 886.11 952.20 902.11
  A 7.16 6.31 41.4 0 0 952.36 903.37
  Q 953.13 906.76 953.07 910.94
  Q 953.02 913.81 955.45 920.79
  Q 958.79 930.36 969.28 932.00
  Q 984.19 934.34 998.40 930.71
  Q 1002.23 929.74 1005.01 926.02
  Q 1006.89 923.50 1007.56 918.29
  Q 1008.08 914.18 1007.80 908.49
  A 0.59 0.58 -1.4 0 1 1008.39 907.88
  L 1029.80 907.88
  A 0.56 0.56 0.0 0 1 1030.36 908.45
  Q 1030.19 914.72 1029.91 923.22
  Q 1029.83 925.64 1028.15 931.21
  C 1025.37 940.43 1018.22 946.61 1009.09 949.37
  Q 1003.42 951.08 998.47 951.70
  Q 996.64 951.93 989.00 952.63
  Q 972.45 954.15 956.16 950.60
  Q 940.48 947.19 934.16 932.44
  Q 930.85 924.73 929.65 913.77
  Q 928.93 907.13 928.95 905.68
  Q 929.01 902.49 928.38 897.63
  Q 927.82 893.27 928.07 889.50
  Q 929.21 872.88 929.07 870.70
  A 2.36 2.34 54.7 0 1 929.24 869.68
  Q 929.68 868.60 930.13 864.77
  Q 930.67 860.16 933.01 853.02
  Q 935.64 845.00 941.99 839.03
  Q 949.33 832.13 961.27 830.01
  Q 975.86 827.41 991.76 828.96
  Q 998.36 829.61 1003.62 830.88
  Q 1024.54 835.95 1027.95 856.77
  Q 1028.37 859.37 1028.70 859.98
  A 0.76 0.60 38.0 0 1 1028.74 860.14
  L 1029.66 869.40
  A 0.57 0.57 0.0 0 1 1029.09 870.03
  L 1007.60 870.03
  A 0.62 0.61 -86.7 0 1 1006.99 869.34
  Z"
/>
<path fill="#0a0b0d" d="
  M 76.03 849.59
  L 71.84 849.37
  A 1.12 1.12 0.0 0 0 70.65 850.48
  L 70.61 859.23
  L 70.60 950.54
  A 0.80 0.79 88.1 0 1 69.86 951.34
  L 66.39 951.58
  L 49.53 951.50
  L 47.42 951.38
  A 0.46 0.45 2.0 0 1 46.99 950.93
  L 46.96 854.03
  L 46.61 850.08
  A 0.54 0.53 -2.3 0 0 46.07 849.59
  L 39.46 849.59
  L 11.95 848.96
  A 0.62 0.62 0.0 0 1 11.35 848.34
  L 11.35 829.60
  A 0.60 0.60 0.0 0 1 11.95 829.00
  L 106.37 829.00
  A 0.63 0.63 0.0 0 1 107.00 829.63
  L 107.00 848.33
  A 0.58 0.58 0.0 0 1 106.43 848.91
  L 76.03 849.59
  Z"
/>
<path fill="#0a0b0d" d="
  M 207.13 898.10
  L 199.43 900.32
  A 0.31 0.31 0.0 0 0 199.44 900.92
  L 207.29 902.66
  Q 212.36 904.97 214.89 908.52
  Q 216.56 910.86 218.05 915.35
  Q 219.06 918.38 219.12 922.78
  Q 219.36 939.58 219.45 950.49
  A 0.82 0.82 0.0 0 1 218.71 951.32
  L 214.29 951.77
  L 198.52 951.59
  L 196.54 951.25
  A 0.62 0.61 -86.1 0 1 196.03 950.65
  Q 195.96 939.06 196.02 927.50
  Q 196.03 925.54 195.38 921.91
  C 194.05 913.13 185.55 910.62 177.75 910.55
  Q 161.74 910.42 145.33 910.49
  A 0.76 0.76 0.0 0 0 144.57 911.24
  L 144.49 923.06
  L 144.33 950.70
  A 0.51 0.50 -3.2 0 1 143.88 951.20
  L 140.33 951.55
  L 123.68 951.51
  Q 122.64 951.91 121.77 951.26
  Q 121.02 950.69 121.02 948.00
  Q 120.95 890.35 120.98 847.10
  C 120.98 841.51 121.82 835.62 121.59 829.71
  A 0.68 0.68 0.0 0 1 122.27 829.00
  L 185.98 829.00
  A 6.18 5.97 -37.9 0 1 187.28 829.14
  Q 188.35 829.36 193.97 830.12
  Q 196.66 830.49 201.44 832.12
  Q 212.34 835.86 216.93 845.97
  Q 217.92 848.17 218.96 851.96
  Q 219.98 855.68 220.06 858.15
  C 220.15 860.97 220.84 864.00 220.70 867.29
  Q 220.41 873.97 219.88 880.83
  A 5.13 4.78 -36.7 0 1 219.71 881.76
  C 219.25 883.46 219.14 885.17 218.61 886.67
  Q 217.15 890.82 213.71 893.96
  C 211.51 895.97 210.03 897.90 207.13 898.10
  Z
  M 144.68 890.83
  Q 161.59 891.17 177.82 890.91
  C 180.16 890.87 181.94 890.30 183.92 890.09
  Q 186.04 889.87 188.29 888.75
  Q 194.23 885.76 195.77 878.95
  Q 196.79 874.38 196.80 874.37
  A 2.72 2.54 57.8 0 0 196.99 873.38
  L 196.97 866.66
  A 6.42 6.15 37.6 0 0 196.69 864.81
  Q 196.01 862.51 195.93 859.92
  A 0.86 0.85 -82.4 0 0 195.33 859.13
  Q 194.91 859.00 194.86 858.81
  Q 195.22 859.03 195.25 858.50
  Q 195.28 857.94 195.01 857.96
  L 194.84 857.03
  Q 192.47 851.63 187.08 850.44
  L 184.54 849.97
  Q 183.03 849.43 181.28 849.53
  L 150.30 849.47
  Q 147.67 848.85 145.12 849.32
  A 0.82 0.81 -5.6 0 0 144.46 850.12
  L 144.68 890.83
  Z"
/>
<path fill="#0a0b0d" d="
  M 342.00 951.60
  L 326.19 951.72
  Q 324.45 951.75 324.02 950.50
  Q 322.18 945.10 320.35 939.71
  Q 320.67 938.88 320.03 938.26
  Q 319.93 938.27 319.79 938.09
  L 316.82 928.62
  A 0.75 0.74 80.8 0 0 316.11 928.10
  L 264.52 928.10
  A 1.16 1.16 0.0 0 0 263.41 928.92
  L 261.10 936.40
  Q 258.09 946.46 256.77 949.50
  Q 255.74 951.87 254.34 951.74
  L 237.03 951.62
  L 232.66 951.31
  A 0.59 0.58 -78.3 0 1 232.16 950.54
  L 272.19 830.13
  A 1.45 1.44 -80.7 0 1 273.56 829.14
  L 305.98 829.14
  A 1.40 1.39 -9.3 0 1 307.30 830.08
  L 347.89 950.12
  A 0.95 0.94 -10.9 0 1 347.04 951.37
  L 342.00 951.60
  Z
  M 289.45 849.92
  L 269.56 909.86
  A 0.63 0.62 8.8 0 0 270.17 910.68
  L 297.00 910.40
  A 1.75 1.73 -34.2 0 1 297.71 910.53
  Q 298.47 910.83 299.25 910.81
  Q 304.78 910.68 310.41 910.48
  A 0.71 0.71 0.0 0 0 311.05 909.55
  L 290.89 850.27
  Q 291.02 849.13 290.57 848.46
  A 0.50 0.50 0.0 0 0 289.82 848.36
  Q 289.23 848.90 289.45 849.92
  Z"
/>
<path fill="#0a0b0d" d="
  M 382.31 951.48
  L 363.69 951.55
  Q 363.06 951.56 362.47 951.28
  A 0.82 0.82 0.0 0 1 362.00 950.54
  L 362.00 829.89
  A 0.73 0.72 90.0 0 1 362.72 829.16
  L 384.29 829.16
  A 0.80 0.80 0.0 0 1 385.09 829.96
  L 385.09 950.49
  A 0.80 0.79 -11.9 0 1 384.61 951.22
  Q 383.57 951.67 382.31 951.48
  Z"
/>
<path fill="#0a0b0d" d="
  M 494.79 925.74
  Q 495.73 928.62 497.52 930.89
  A 0.29 0.29 0.0 0 0 498.03 930.77
  Q 498.47 928.50 497.97 925.99
  Q 498.10 888.29 497.63 850.50
  Q 497.61 848.91 497.45 848.30
  A 1.58 1.51 -46.3 0 1 497.45 847.49
  Q 498.02 845.33 497.39 842.55
  A 1.40 0.95 -60.8 0 1 497.37 842.32
  L 497.98 830.03
  A 0.93 0.93 0.0 0 1 498.91 829.14
  L 519.23 829.14
  A 1.13 1.13 0.0 0 1 520.36 830.27
  L 520.36 950.67
  A 0.57 0.57 0.0 0 1 519.82 951.24
  L 516.37 951.41
  L 481.18 951.57
  L 436.73 863.25
  L 429.69 849.29
  A 0.38 0.38 0.0 0 0 428.97 849.46
  L 429.04 862.97
  L 429.60 950.42
  A 0.85 0.85 0.0 0 1 428.68 951.28
  Q 427.35 951.16 426.04 951.65
  L 407.69 951.74
  Q 406.91 951.72 406.50 949.01
  Q 406.31 947.77 406.31 945.89
  Q 406.31 899.59 406.31 841.99
  A 3.16 3.02 54.0 0 1 406.42 841.17
  L 406.71 840.14
  A 2.67 2.29 57.4 0 0 406.81 839.43
  L 406.90 829.89
  A 0.77 0.76 0.4 0 1 407.67 829.14
  L 445.15 829.14
  A 0.57 0.57 0.0 0 1 445.65 829.44
  L 494.79 925.74
  Z"
/>
<path fill="#0a0b0d" d="
  M 560.99 951.56
  L 544.20 951.56
  Q 542.00 951.88 542.00 950.26
  Q 541.97 886.85 542.00 829.96
  A 0.79 0.79 0.0 0 1 542.79 829.17
  L 564.20 829.17
  A 0.94 0.94 0.0 0 1 565.14 830.11
  L 565.14 950.87
  A 0.62 0.62 0.0 0 1 564.54 951.49
  L 560.99 951.56
  Z"
/>
<path fill="#0a0b0d" d="
  M 671.69 919.33
  Q 671.60 919.07 671.54 919.50
  A 0.26 0.23 -57.7 0 0 671.57 919.68
  L 677.48 931.38
  A 0.34 0.34 0.0 0 0 678.12 931.22
  L 678.00 917.78
  L 677.68 830.22
  A 1.07 1.07 0.0 0 1 678.75 829.14
  L 699.44 829.14
  A 0.94 0.94 0.0 0 1 700.38 830.08
  L 700.38 950.51
  A 0.75 0.75 0.0 0 1 699.76 951.25
  Q 695.90 951.92 690.75 951.95
  Q 676.82 952.02 662.36 951.84
  A 1.60 1.58 -12.7 0 1 660.95 950.96
  L 612.07 854.02
  Q 611.17 851.53 609.64 849.64
  A 0.33 0.32 32.9 0 0 609.07 849.76
  Q 608.59 851.64 609.10 853.96
  L 609.56 950.43
  A 0.90 0.89 86.1 0 1 608.78 951.33
  L 606.24 951.64
  L 588.98 951.69
  Q 588.13 952.29 587.06 951.09
  A 1.31 1.30 23.7 0 1 586.73 950.25
  L 586.46 941.23
  Q 586.81 940.62 586.82 940.25
  Q 586.92 911.95 586.88 847.00
  Q 586.88 845.67 586.52 844.53
  Q 586.75 843.13 586.24 841.91
  A 1.25 1.25 0.0 0 1 586.34 840.76
  Q 586.40 840.66 586.42 840.61
  A 2.52 2.42 -31.4 0 0 586.74 839.40
  L 586.88 829.95
  A 0.82 0.82 0.0 0 1 587.70 829.14
  L 625.07 829.14
  A 0.80 0.79 76.7 0 1 625.78 829.58
  L 670.02 917.06
  A 2.29 1.36 65.1 0 0 670.19 917.33
  L 671.69 919.33
  Z"
/>
<path fill="#0a0b0d" d="
  M 1233.92 925.80
  L 1236.78 931.39
  A 0.30 0.30 0.0 0 0 1237.35 931.25
  L 1237.32 924.03
  A 0.03 0.01 22.5 0 0 1237.30 924.01
  L 1237.29 924.01
  A 0.02 0.02 0.0 0 0 1237.27 924.03
  Q 1237.28 924.31 1237.14 924.36
  L 1236.72 830.45
  A 1.22 1.22 0.0 0 1 1237.94 829.22
  L 1258.45 829.22
  A 1.16 1.16 0.0 0 1 1259.61 830.38
  Q 1259.66 888.80 1259.62 949.88
  Q 1259.62 951.07 1259.00 951.37
  Q 1258.38 951.67 1257.25 951.54
  Q 1239.85 951.73 1222.50 951.56
  Q 1221.02 951.54 1220.44 951.08
  L 1175.95 863.23
  L 1169.07 849.66
  A 0.52 0.52 0.0 0 0 1168.09 849.83
  Q 1168.07 850.00 1168.07 850.27
  Q 1168.23 856.13 1168.34 862.07
  L 1168.79 950.69
  A 0.69 0.69 0.0 0 1 1168.16 951.39
  L 1166.01 951.61
  L 1148.19 951.64
  Q 1147.13 951.78 1146.48 951.39
  Q 1145.86 951.02 1145.86 949.88
  Q 1145.82 890.16 1145.86 830.16
  A 0.96 0.95 0.0 0 1 1146.82 829.21
  L 1183.77 829.21
  A 1.85 1.83 -13.4 0 1 1185.41 830.21
  L 1233.92 925.80
  Z"
/>
<path fill="#0a0b0d" d="
  M 1337.57 849.64
  Q 1335.68 849.22 1334.25 849.59
  A 0.70 0.69 83.4 0 0 1333.73 850.25
  L 1333.54 860.25
  L 1333.48 950.32
  A 1.05 1.04 -10.0 0 1 1332.79 951.30
  Q 1331.65 951.72 1330.27 951.62
  L 1310.05 951.56
  L 1309.61 852.07
  Q 1311.22 848.50 1304.53 849.69
  L 1274.93 849.11
  A 0.74 0.74 0.0 0 1 1274.20 848.37
  L 1274.20 829.61
  A 0.62 0.61 -0.0 0 1 1274.82 829.00
  L 1369.42 829.00
  A 0.52 0.51 -0.0 0 1 1369.94 829.51
  L 1369.94 848.38
  A 0.52 0.52 0.0 0 1 1369.43 848.90
  L 1337.57 849.64
  Z"
/>
<path fill="#0a0b0d" d="
  M 1571.19 898.12
  L 1563.22 900.37
  A 0.30 0.30 0.0 0 0 1563.23 900.95
  L 1572.14 903.04
  Q 1577.80 906.03 1581.08 912.48
  Q 1582.30 914.90 1581.99 916.20
  Q 1581.91 916.56 1582.74 918.06
  A 2.35 2.33 -59.9 0 1 1583.02 919.13
  L 1583.33 950.62
  A 0.77 0.76 -3.7 0 1 1582.65 951.39
  L 1580.16 951.68
  L 1562.88 951.59
  L 1560.52 951.29
  A 0.56 0.55 3.5 0 1 1560.03 950.74
  Q 1559.96 939.08 1560.01 927.51
  Q 1560.02 925.60 1559.37 923.04
  Q 1559.70 921.67 1559.04 920.94
  L 1558.70 919.49
  C 1555.81 911.67 1547.43 910.55 1539.76 910.49
  Q 1524.50 910.38 1509.36 910.58
  A 0.72 0.72 0.0 0 0 1508.65 911.29
  L 1508.42 923.74
  L 1508.17 950.68
  A 0.60 0.59 87.2 0 1 1507.65 951.26
  L 1504.23 951.69
  L 1487.73 951.50
  Q 1486.64 951.61 1485.81 951.08
  A 0.94 0.92 -74.4 0 1 1485.38 950.29
  L 1485.38 829.64
  A 0.64 0.64 0.0 0 1 1486.02 829.00
  L 1549.69 829.00
  A 8.96 8.81 49.6 0 1 1551.26 829.14
  Q 1554.08 829.65 1558.20 830.17
  Q 1562.47 830.71 1568.20 833.30
  Q 1576.96 837.24 1580.85 846.06
  Q 1583.43 851.89 1583.99 857.81
  Q 1585.53 873.82 1582.92 885.23
  Q 1581.56 891.19 1574.80 896.69
  A 1.22 1.18 25.2 0 1 1574.01 896.96
  Q 1573.26 896.95 1573.22 897.59
  A 0.50 0.50 0.0 0 1 1572.73 898.06
  L 1571.19 898.12
  Z
  M 1508.75 851.46
  L 1508.69 889.99
  A 1.00 1.00 0.0 0 0 1509.69 890.99
  L 1542.80 890.99
  A 10.94 10.74 -51.2 0 0 1545.33 890.69
  Q 1547.19 890.24 1548.34 890.08
  Q 1550.15 889.83 1552.35 888.75
  Q 1558.34 885.81 1560.04 878.26
  Q 1562.28 868.37 1559.42 858.73
  Q 1557.18 851.22 1549.24 850.05
  C 1546.94 849.71 1544.53 849.31 1541.90 849.28
  Q 1525.95 849.09 1510.09 849.39
  Q 1509.31 849.11 1508.86 849.33
  Q 1508.40 849.56 1508.48 850.33
  Q 1508.53 850.90 1508.75 851.46
  Z"
/>
<path fill="#0a0b0d" d="
  M 1117.55 848.88
  Q 1116.32 848.15 1113.50 848.12
  Q 1089.88 847.92 1066.34 848.13
  A 1.17 1.16 2.8 0 0 1065.19 849.17
  Q 1064.89 852.02 1065.64 854.83
  Q 1065.82 856.56 1065.31 860.25
  Q 1064.58 865.50 1065.83 879.46
  A 0.68 0.68 0.0 0 0 1066.55 880.08
  Q 1068.49 879.95 1069.69 880.60
  A 1.22 1.20 59.5 0 0 1070.29 880.76
  L 1122.33 880.76
  A 0.67 0.67 0.0 0 1 1123.00 881.43
  L 1123.00 897.40
  A 0.59 0.59 0.0 0 1 1122.41 897.99
  L 1068.04 898.03
  Q 1064.88 897.68 1065.58 899.11
  L 1065.23 931.23
  A 0.72 0.71 9.0 0 0 1065.73 931.91
  Q 1067.77 932.59 1069.75 932.58
  Q 1095.49 932.42 1125.56 932.55
  A 0.58 0.58 0.0 0 1 1126.14 933.13
  L 1126.14 950.14
  A 1.67 1.67 0.0 0 1 1124.47 951.81
  L 1044.51 951.81
  A 2.21 2.20 84.2 0 1 1042.35 950.04
  L 1041.91 947.84
  A 0.80 0.30 65.3 0 1 1041.90 947.71
  L 1042.24 830.03
  A 0.90 0.89 -0.0 0 1 1043.14 829.14
  L 1125.43 829.14
  A 0.57 0.56 -0.0 0 1 1126.00 829.70
  L 1126.00 847.74
  A 0.57 0.57 0.0 0 1 1125.47 848.31
  L 1117.55 848.88
  Z"
/>
<path fill="#0a0b0d" d="
  M 1456.38 848.59
  Q 1455.26 848.22 1454.49 848.21
  Q 1430.87 847.87 1407.25 848.21
  Q 1404.83 848.25 1405.17 849.03
  L 1405.12 879.19
  A 0.77 0.77 0.0 0 0 1405.76 879.95
  L 1410.31 880.71
  A 2.18 1.71 -33.3 0 0 1410.66 880.74
  L 1461.73 880.79
  A 0.62 0.62 0.0 0 1 1462.35 881.41
  L 1462.35 897.47
  A 0.54 0.53 -90.0 0 1 1461.82 898.01
  L 1406.94 898.01
  A 1.93 1.93 0.0 0 0 1405.01 899.94
  L 1405.01 931.41
  A 1.11 1.11 0.0 0 0 1406.12 932.52
  L 1465.18 932.52
  A 0.82 0.82 0.0 0 1 1466.00 933.34
  L 1466.00 950.65
  A 0.60 0.60 0.0 0 1 1465.45 951.25
  L 1462.26 951.49
  L 1383.27 951.44
  Q 1382.00 951.37 1382.00 950.76
  Q 1381.99 891.24 1382.00 829.88
  A 0.75 0.75 0.0 0 1 1382.75 829.13
  L 1464.55 829.13
  A 0.73 0.73 0.0 0 1 1465.28 829.86
  L 1465.28 847.53
  A 0.86 0.86 0.0 0 1 1464.44 848.39
  L 1456.38 848.59
  Z"
/>
<path fill="#a5a4a3" d="
  M 586.46 941.23
  Q 586.03 940.56 586.03 939.49
  Q 585.97 873.49 586.10 845.35
  Q 586.10 844.93 586.52 844.53
  Q 586.88 845.67 586.88 847.00
  Q 586.92 911.95 586.82 940.25
  Q 586.81 940.62 586.46 941.23
  Z"
/>
<path fill="#a5a4a3" d="
  M 290.89 850.27
  Q 290.50 849.82 289.45 849.92
  Q 289.23 848.90 289.82 848.36
  A 0.50 0.50 0.0 0 1 290.57 848.46
  Q 291.02 849.13 290.89 850.27
  Z"
/>
<path fill="#a5a4a3" d="
  M 1117.55 848.88
  L 1066.62 848.99
  A 0.72 0.71 1.3 0 0 1065.91 849.66
  L 1065.64 854.83
  Q 1064.89 852.02 1065.19 849.17
  A 1.17 1.16 2.8 0 1 1066.34 848.13
  Q 1089.88 847.92 1113.50 848.12
  Q 1116.32 848.15 1117.55 848.88
  Z"
/>
<path fill="#a5a4a3" d="
  M 1456.38 848.59
  L 1405.17 849.03
  Q 1404.83 848.25 1407.25 848.21
  Q 1430.87 847.87 1454.49 848.21
  Q 1455.26 848.22 1456.38 848.59
  Z"
/>
<path fill="#a5a4a3" d="
  M 796.01 851.89
  Q 794.08 852.66 792.86 851.40
  A 1.47 1.47 0.0 0 0 791.82 850.97
  L 790.93 850.97
  A 1.09 1.06 67.4 0 1 790.16 850.64
  Q 788.61 849.04 786.23 848.96
  C 783.94 848.89 781.08 849.08 778.26 848.88
  Q 770.38 848.30 762.16 848.88
  Q 772.75 847.82 783.50 848.52
  Q 787.95 848.82 792.24 850.00
  Q 794.39 850.59 796.01 851.89
  Z"
/>
<path fill="#a5a4a3" d="
  M 436.73 863.25
  L 434.79 862.95
  A 1.19 1.19 0.0 0 1 434.11 862.60
  Q 433.24 861.69 431.52 862.04
  A 0.52 0.52 0.0 0 0 431.15 862.36
  Q 430.75 863.36 429.04 862.97
  L 428.97 849.46
  A 0.38 0.38 0.0 0 1 429.69 849.29
  L 436.73 863.25
  Z"
/>
<path fill="#a5a4a3" d="
  M 76.03 849.59
  L 73.18 849.91
  A 2.52 2.52 0.0 0 0 70.96 852.73
  Q 71.35 855.84 70.61 859.23
  L 70.65 850.48
  A 1.12 1.12 0.0 0 1 71.84 849.37
  L 76.03 849.59
  Z"
/>
<path fill="#a5a4a3" d="
  M 150.30 849.47
  Q 147.25 850.60 145.28 853.32
  A 1.58 1.57 -27.5 0 0 144.99 854.23
  L 144.68 890.83
  L 144.46 850.12
  A 0.82 0.81 -5.6 0 1 145.12 849.32
  Q 147.67 848.85 150.30 849.47
  Z"
/>
<path fill="#a5a4a3" d="
  M 612.07 854.02
  L 609.10 853.96
  Q 608.59 851.64 609.07 849.76
  A 0.33 0.32 32.9 0 1 609.64 849.64
  Q 611.17 851.53 612.07 854.02
  Z"
/>
<path fill="#a5a4a3" d="
  M 1175.95 863.23
  L 1171.96 863.00
  A 1.18 1.15 -19.8 0 1 1171.20 862.65
  Q 1170.19 861.64 1168.34 862.07
  Q 1168.23 856.13 1168.07 850.27
  Q 1168.07 850.00 1168.09 849.83
  A 0.52 0.52 0.0 0 1 1169.07 849.66
  L 1175.95 863.23
  Z"
/>
<path fill="#a5a4a3" d="
  M 1510.09 849.39
  Q 1508.79 850.39 1508.75 851.46
  Q 1508.53 850.90 1508.48 850.33
  Q 1508.40 849.56 1508.86 849.33
  Q 1509.31 849.11 1510.09 849.39
  Z"
/>
<path fill="#a5a4a3" d="
  M 46.96 854.03
  Q 46.72 854.05 46.53 854.04
  A 0.69 0.68 -81.2 0 1 45.91 853.19
  Q 46.31 851.56 45.21 850.56
  A 1.60 1.54 -19.5 0 0 44.33 850.16
  L 39.46 849.59
  L 46.07 849.59
  A 0.54 0.53 -2.3 0 1 46.61 850.08
  L 46.96 854.03
  Z"
/>
<path fill="#a5a4a3" d="
  M 184.54 849.97
  Q 182.86 850.08 181.28 849.53
  Q 183.03 849.43 184.54 849.97
  Z"
/>
<path fill="#a5a4a3" d="
  M 1309.61 852.07
  Q 1307.33 849.13 1304.53 849.69
  Q 1311.22 848.50 1309.61 852.07
  Z"
/>
<path fill="#a5a4a3" d="
  M 1337.57 849.64
  Q 1335.71 849.75 1334.77 850.68
  Q 1334.03 851.43 1334.07 853.53
  Q 1334.15 856.97 1333.54 860.25
  L 1333.73 850.25
  A 0.70 0.69 83.4 0 1 1334.25 849.59
  Q 1335.68 849.22 1337.57 849.64
  Z"
/>
<path fill="#a5a4a3" d="
  M 194.84 857.03
  L 193.57 856.97
  A 0.57 0.56 -87.1 0 1 193.03 856.36
  Q 193.03 856.28 193.05 856.08
  A 0.94 0.92 29.6 0 0 192.85 855.38
  Q 190.30 852.24 187.08 850.44
  Q 192.47 851.63 194.84 857.03
  Z"
/>
<path fill="#a5a4a3" d="
  M 799.79 857.39
  Q 797.71 856.65 796.10 854.71
  A 1.22 1.19 28.3 0 1 795.83 853.85
  L 796.01 851.89
  Q 798.84 853.54 799.79 857.39
  Z"
/>
<path fill="#a5a4a3" d="
  M 194.86 858.81
  L 195.01 857.96
  Q 195.28 857.94 195.25 858.50
  Q 195.22 859.03 194.86 858.81
  Z"
/>
<path fill="#a5a4a3" d="
  M 812.33 866.39
  Q 812.57 867.54 809.54 866.30
  Q 811.02 866.10 812.33 866.39
  Z"
/>
<path fill="#a5a4a3" d="
  M 207.13 898.10
  L 207.29 902.66
  L 199.44 900.92
  A 0.31 0.31 0.0 0 1 199.43 900.32
  L 207.13 898.10
  Z"
/>
<path fill="#a5a4a3" d="
  M 1068.04 898.03
  Q 1068.46 899.29 1065.58 899.11
  Q 1064.88 897.68 1068.04 898.03
  Z"
/>
<path fill="#a5a4a3" d="
  M 1571.19 898.12
  L 1571.04 900.04
  A 0.74 0.73 -68.8 0 0 1571.31 900.67
  Q 1572.16 901.37 1572.14 903.04
  L 1563.23 900.95
  A 0.30 0.30 0.0 0 1 1563.22 900.37
  L 1571.19 898.12
  Z"
/>
<path fill="#a5a4a3" d="
  M 801.14 916.22
  Q 799.03 912.52 796.03 909.71
  C 792.84 906.73 789.29 906.93 785.51 906.97
  A 1.74 1.74 0.0 0 1 784.70 906.77
  Q 783.59 906.20 780.28 906.04
  Q 778.37 905.95 778.53 904.24
  L 801.05 904.20
  A 0.56 0.56 0.0 0 1 801.61 904.70
  Q 802.18 910.52 801.14 916.22
  Z"
/>
<path fill="#a5a4a3" d="
  M 195.38 921.91
  L 193.35 919.90
  A 1.50 1.50 0.0 0 1 192.91 918.84
  L 192.91 917.99
  A 0.88 0.87 -79.1 0 0 192.37 917.18
  Q 189.40 915.90 188.74 915.25
  Q 187.52 914.06 186.14 914.03
  C 184.67 913.99 183.66 913.27 182.86 912.43
  A 1.59 1.58 -27.6 0 0 181.41 911.98
  Q 179.78 912.30 178.99 911.63
  A 2.27 2.25 66.2 0 0 177.46 911.03
  L 152.83 910.93
  A 0.92 0.91 -79.9 0 0 151.97 911.54
  Q 151.96 911.58 151.95 911.62
  A 0.53 0.53 0.0 0 1 151.35 912.03
  Q 150.32 911.87 150.05 912.58
  A 0.67 0.66 13.4 0 1 149.35 913.00
  Q 148.16 912.86 147.97 913.67
  A 0.54 0.53 6.9 0 1 147.45 914.07
  L 145.65 914.07
  A 0.71 0.71 0.0 0 0 144.94 914.74
  L 144.49 923.06
  L 144.57 911.24
  A 0.76 0.76 0.0 0 1 145.33 910.49
  Q 161.74 910.42 177.75 910.55
  C 185.55 910.62 194.05 913.13 195.38 921.91
  Z"
/>
<path fill="#a5a4a3" d="
  M 1558.70 919.49
  L 1555.37 917.75
  A 2.01 1.86 -6.7 0 1 1554.89 917.40
  L 1551.90 914.41
  A 1.21 1.17 64.3 0 0 1550.95 914.06
  Q 1548.45 914.29 1547.83 913.30
  A 0.56 0.55 -15.5 0 0 1547.36 913.04
  L 1544.63 913.01
  A 0.71 0.70 78.7 0 1 1543.98 912.57
  Q 1543.97 912.56 1543.95 912.24
  A 0.20 0.19 86.6 0 0 1543.76 912.06
  L 1518.69 912.06
  A 2.24 2.23 -61.6 0 0 1517.46 912.43
  L 1515.13 913.94
  A 0.64 0.58 25.9 0 1 1514.79 914.04
  L 1512.76 914.12
  A 0.81 0.80 -1.5 0 0 1511.99 914.92
  L 1511.99 915.40
  A 0.53 0.53 0.0 0 1 1511.39 915.92
  Q 1510.18 915.74 1509.17 917.38
  A 1.24 1.22 -26.2 0 0 1508.99 917.90
  L 1508.42 923.74
  L 1508.65 911.29
  A 0.72 0.72 0.0 0 1 1509.36 910.58
  Q 1524.50 910.38 1539.76 910.49
  C 1547.43 910.55 1555.81 911.67 1558.70 919.49
  Z"
/>
<path fill="#a5a4a3" d="
  M 678.00 917.78
  L 678.12 931.22
  A 0.34 0.34 0.0 0 1 677.48 931.38
  L 671.57 919.68
  A 0.26 0.23 -57.7 0 1 671.54 919.50
  Q 671.60 919.07 671.69 919.33
  Q 673.11 920.02 673.15 921.36
  A 0.61 0.61 0.0 0 0 673.86 921.94
  Q 674.53 921.83 675.24 921.97
  A 0.52 0.52 0.0 0 0 675.86 921.38
  Q 675.48 918.94 678.00 917.78
  Z"
/>
<path fill="#a5a4a3" d="
  M 1559.37 923.04
  Q 1558.85 921.96 1559.04 920.94
  Q 1559.70 921.67 1559.37 923.04
  Z"
/>
<path fill="#a5a4a3" d="
  M 1233.92 925.80
  Q 1235.54 926.74 1237.14 924.36
  Q 1237.28 924.31 1237.27 924.03
  A 0.02 0.02 0.0 0 1 1237.29 924.01
  L 1237.30 924.01
  A 0.03 0.01 22.5 0 1 1237.32 924.03
  L 1237.35 931.25
  A 0.30 0.30 0.0 0 1 1236.78 931.39
  L 1233.92 925.80
  Z"
/>
<path fill="#a5a4a3" d="
  M 497.97 925.99
  Q 498.47 928.50 498.03 930.77
  A 0.29 0.29 0.0 0 1 497.52 930.89
  Q 495.73 928.62 494.79 925.74
  Q 496.19 926.13 497.97 925.99
  Z"
/>
<path fill="#a5a4a3" d="
  M 319.79 938.09
  Q 319.63 938.02 319.45 937.97
  A 0.64 0.63 -82.9 0 1 319.00 937.39
  Q 318.89 935.34 316.49 934.88
  A 0.80 0.71 -13.3 0 1 316.12 934.68
  L 313.90 932.46
  A 1.40 1.40 0.0 0 0 312.91 932.05
  L 310.78 932.05
  A 0.71 0.71 0.0 0 1 310.15 931.67
  Q 309.77 930.98 308.85 931.03
  A 0.92 0.91 -12.2 0 1 307.94 930.45
  Q 307.91 930.37 307.73 930.22
  A 0.61 0.60 -23.8 0 0 307.33 930.07
  L 273.62 930.07
  A 0.59 0.59 0.0 0 0 273.08 930.43
  Q 272.75 931.26 271.44 931.05
  Q 270.59 930.91 269.78 931.59
  Q 269.08 932.18 267.31 932.09
  A 1.51 1.49 27.4 0 0 266.31 932.40
  L 261.10 936.40
  L 263.41 928.92
  A 1.16 1.16 0.0 0 1 264.52 928.10
  L 316.11 928.10
  A 0.75 0.74 80.8 0 1 316.82 928.62
  L 319.79 938.09
  Z"
/>
<path fill="#a5a4a3" d="
  M 320.35 939.71
  Q 320.00 939.06 320.03 938.26
  Q 320.67 938.88 320.35 939.71
  Z"
/>
<path fill="#a5a4a3" d="
  M 1257.25 951.54
  L 1250.74 952.10
  A 0.66 0.65 12.4 0 0 1250.23 952.42
  Q 1250.13 952.60 1250.09 952.66
  A 0.90 0.89 -72.0 0 1 1249.24 953.10
  Q 1247.12 952.90 1245.42 953.78
  A 2.13 2.09 31.0 0 1 1244.46 954.01
  L 1233.72 954.01
  A 2.00 1.92 -32.2 0 1 1232.94 953.85
  Q 1230.51 952.83 1227.02 953.09
  A 1.21 1.19 68.1 0 1 1225.99 952.64
  Q 1225.97 952.62 1225.83 952.37
  A 0.56 0.55 75.9 0 0 1225.40 952.11
  L 1221.04 951.88
  A 0.49 0.45 63.3 0 1 1220.80 951.79
  Q 1220.17 951.35 1220.44 951.08
  Q 1221.02 951.54 1222.50 951.56
  Q 1239.85 951.73 1257.25 951.54
  Z"
/>
<path fill="#a5a4a3" d="
  M 66.39 951.58
  Q 64.28 952.24 61.94 952.06
  Q 61.15 952.00 61.11 952.29
  Q 61.08 952.58 61.04 952.68
  A 0.71 0.70 19.0 0 1 60.23 953.07
  Q 59.41 952.87 59.13 953.41
  Q 58.77 954.10 58.16 954.12
  Q 57.07 954.15 56.81 953.43
  A 0.68 0.67 -17.2 0 0 56.01 953.01
  Q 55.06 953.26 54.96 952.56
  A 0.52 0.52 0.0 0 0 54.51 952.12
  L 49.53 951.50
  L 66.39 951.58
  Z"
/>
<path fill="#a5a4a3" d="
  M 140.33 951.55
  Q 138.22 952.26 135.89 952.02
  A 0.90 0.89 -72.2 0 0 135.02 952.47
  Q 135.00 952.51 134.97 952.58
  A 0.72 0.72 0.0 0 1 134.16 953.06
  Q 133.27 952.89 133.04 953.57
  A 0.74 0.73 6.2 0 1 132.42 954.06
  Q 131.17 954.18 130.96 953.64
  A 1.00 1.00 0.0 0 0 129.89 953.02
  Q 129.78 953.04 129.72 953.05
  A 0.68 0.68 0.0 0 1 129.00 952.62
  Q 128.68 951.81 127.51 952.03
  Q 125.66 952.38 123.68 951.51
  L 140.33 951.55
  Z"
/>
<path fill="#a5a4a3" d="
  M 382.31 951.48
  Q 379.74 952.29 376.89 951.96
  A 0.92 0.90 34.3 0 0 376.38 952.05
  Q 376.14 952.18 376.14 952.46
  A 0.63 0.62 4.7 0 1 375.41 953.07
  Q 374.37 952.90 374.19 953.38
  A 1.25 1.21 42.6 0 1 371.92 953.44
  Q 371.69 952.96 370.91 953.09
  A 0.86 0.85 74.0 0 1 369.97 952.56
  Q 369.96 952.52 369.95 952.49
  A 0.64 0.63 -12.7 0 0 369.32 952.10
  Q 366.37 952.33 363.69 951.55
  L 382.31 951.48
  Z"
/>
<path fill="#a5a4a3" d="
  M 516.37 951.41
  Q 513.79 952.36 510.77 952.01
  A 0.60 0.60 0.0 0 0 510.12 952.47
  Q 510.10 952.60 510.08 952.65
  A 0.72 0.71 -79.0 0 1 509.42 953.10
  L 486.59 953.08
  A 0.62 0.61 82.6 0 1 486.00 952.62
  Q 485.95 952.43 485.61 952.10
  Q 485.41 951.90 484.93 951.96
  Q 482.96 952.20 481.18 951.57
  L 516.37 951.41
  Z"
/>
<path fill="#a5a4a3" d="
  M 560.99 951.56
  Q 560.13 952.11 558.82 952.07
  A 0.71 0.71 0.0 0 0 558.09 952.76
  L 558.07 953.42
  A 0.59 0.58 -86.8 0 1 557.44 953.99
  Q 557.40 953.99 557.09 954.01
  A 1.49 1.47 20.7 0 0 556.12 954.44
  L 553.90 956.67
  A 0.88 0.87 -52.2 0 1 552.84 956.81
  L 548.45 954.27
  A 1.07 1.06 -75.7 0 1 547.91 953.36
  Q 547.91 952.62 547.84 952.31
  Q 547.78 952.09 547.07 952.13
  Q 545.46 952.21 544.20 951.56
  L 560.99 951.56
  Z"
/>
<path fill="#a5a4a3" d="
  M 1462.26 951.49
  Q 1459.84 952.17 1457.07 952.03
  A 1.10 1.09 -66.3 0 0 1456.25 952.35
  L 1455.02 953.58
  A 1.55 1.53 22.3 0 1 1453.93 954.03
  L 1392.53 954.03
  A 0.59 0.58 82.1 0 1 1391.97 953.60
  Q 1391.91 953.38 1391.71 953.21
  Q 1391.42 952.97 1391.24 953.00
  Q 1390.28 953.18 1390.04 952.66
  A 1.23 0.94 -5.1 0 0 1389.12 952.08
  L 1383.27 951.44
  L 1462.26 951.49
  Z"
/>
<path fill="#a5a4a3" d="
  M 1504.23 951.69
  Q 1502.79 952.09 1501.22 951.96
  A 1.26 1.24 24.3 0 0 1500.25 952.32
  L 1497.79 954.77
  A 1.10 1.10 0.0 0 1 1496.23 954.77
  L 1493.82 952.37
  A 1.28 1.27 -24.4 0 0 1492.83 952.00
  Q 1490.16 952.22 1487.73 951.50
  L 1504.23 951.69
  Z"
/>
<path fill="#a5a4a3" d="
  M 1580.16 951.68
  L 1575.90 952.02
  A 1.03 1.02 19.6 0 0 1575.24 952.33
  L 1573.12 954.44
  A 2.28 2.28 0.0 0 1 1569.90 954.44
  L 1567.78 952.32
  A 1.24 1.23 65.9 0 0 1566.84 951.96
  Q 1564.78 952.09 1562.88 951.59
  L 1580.16 951.68
  Z"
/>
<path fill="#a5a4a3" d="
  M 214.29 951.77
  L 210.73 952.03
  A 0.84 0.76 5.3 0 0 210.00 952.58
  Q 209.99 952.61 209.98 952.67
  A 0.52 0.51 14.0 0 1 209.34 953.05
  Q 208.45 952.80 208.16 953.35
  Q 207.78 954.07 207.13 954.10
  Q 206.14 954.15 205.90 953.55
  A 0.85 0.85 0.0 0 0 205.00 953.01
  Q 204.95 953.02 204.85 953.03
  A 0.75 0.74 71.5 0 1 204.08 952.64
  Q 203.69 951.93 202.76 952.02
  Q 200.53 952.23 198.52 951.59
  L 214.29 951.77
  Z"
/>
<path fill="#a5a4a3" d="
  M 254.34 951.74
  L 249.67 952.11
  A 0.70 0.70 0.0 0 0 249.10 952.49
  Q 249.02 952.66 248.97 952.72
  A 1.01 1.01 0.0 0 1 247.94 953.11
  Q 246.30 952.77 245.63 953.81
  A 0.41 0.40 46.6 0 1 244.94 953.79
  Q 244.93 953.76 244.93 953.50
  A 0.45 0.44 -90.0 0 0 244.49 953.05
  L 242.63 953.05
  A 0.65 0.63 -12.2 0 1 242.05 952.69
  Q 241.65 951.86 240.50 951.97
  Q 238.62 952.16 237.03 951.62
  L 254.34 951.74
  Z"
/>
<path fill="#a5a4a3" d="
  M 342.00 951.60
  Q 339.96 952.20 337.74 952.03
  A 0.75 0.74 -79.0 0 0 336.98 952.55
  Q 336.98 952.58 336.96 952.65
  A 0.44 0.44 0.0 0 1 336.40 953.00
  Q 335.31 952.67 335.26 952.99
  A 2.00 1.72 35.8 0 1 331.81 953.29
  Q 331.64 953.04 330.75 953.01
  A 0.99 0.98 -14.8 0 1 329.92 952.53
  Q 329.75 952.23 329.73 952.19
  Q 329.65 952.04 329.27 952.06
  Q 327.68 952.17 326.19 951.72
  L 342.00 951.60
  Z"
/>
<path fill="#a5a4a3" d="
  M 426.04 951.65
  L 419.47 952.01
  A 0.50 0.50 0.0 0 0 418.99 952.50
  Q 418.97 953.09 418.43 953.04
  Q 417.77 952.99 417.59 953.03
  Q 416.39 953.29 416.03 952.66
  A 1.17 1.06 -11.7 0 0 415.09 952.11
  L 407.69 951.74
  L 426.04 951.65
  Z"
/>
<path fill="#a5a4a3" d="
  M 606.24 951.64
  Q 605.14 952.06 603.97 952.04
  A 1.26 1.20 23.8 0 0 603.17 952.33
  Q 602.00 953.36 601.89 954.19
  A 0.86 0.83 82.1 0 1 601.40 954.86
  Q 600.08 955.44 599.00 956.53
  A 2.14 2.13 45.7 0 1 595.95 956.49
  Q 594.33 954.79 592.46 953.83
  A 0.87 0.85 -78.7 0 1 591.99 953.11
  Q 591.97 952.88 591.84 952.39
  Q 591.77 952.11 591.14 952.13
  Q 589.94 952.15 588.98 951.69
  L 606.24 951.64
  Z"
/>
<path fill="#a5a4a3" d="
  M 1166.01 951.61
  L 1160.47 952.08
  A 0.52 0.50 -90.0 0 0 1160.00 952.56
  Q 1159.94 953.28 1158.91 953.01
  Q 1158.34 952.85 1158.17 953.18
  Q 1157.99 953.56 1157.97 953.62
  A 0.48 0.48 0.0 0 1 1157.50 954.02
  Q 1157.07 954.03 1156.94 953.56
  A 0.67 0.67 0.0 0 0 1156.29 953.06
  L 1154.67 953.06
  A 0.67 0.66 -11.4 0 1 1154.06 952.66
  Q 1153.65 951.72 1152.01 951.98
  Q 1150.20 952.26 1148.19 951.64
  L 1166.01 951.61
  Z"
/>
<path fill="#a5a4a3" d="
  M 1330.27 951.62
  L 1325.48 952.05
  A 0.53 0.52 2.1 0 0 1325.01 952.48
  Q 1324.84 953.32 1323.51 953.08
  Q 1322.66 952.92 1322.49 953.05
  Q 1322.20 953.26 1322.05 953.61
  A 0.61 0.60 -84.9 0 1 1321.63 953.97
  Q 1320.22 954.32 1319.82 953.38
  A 0.63 0.63 0.0 0 0 1319.07 953.02
  Q 1318.25 953.26 1318.01 952.53
  A 0.58 0.58 0.0 0 0 1317.50 952.13
  L 1310.05 951.56
  L 1330.27 951.62
  Z"
/>
</svg>
